<svg xmlns="http://www.w3.org/2000/svg" width="1280" height="720" viewBox="0 0 1280 720" data-pptx-page-role="content" font-family="Golos Text, Arial, Helvetica Neue, sans-serif">
  <rect id="page-bg" data-pptx-role="background" x="0" y="0" width="1280" height="720" fill="#FFFFFF" />

  <g id="page-header" data-pptx-bounds="64 56 1152 100">
    <text x="64" y="76" font-size="15" font-weight="bold" letter-spacing="2" fill="#6F5CE8">УСТАНОВКА · ШАГИ 1–2</text>
    <text x="64" y="124" font-size="38" font-weight="bold" fill="#2A2440">Поставьте агента, затем расширение</text>
    <line x1="64" y1="150" x2="1216" y2="150" stroke="#DDD8EE" stroke-width="1" />
  </g>

  <g id="step-agent" data-pptx-bounds="64 182 1152 188">
    <text x="64" y="240" font-size="56" font-weight="bold" fill="#6F5CE8">1</text>
    <text x="140" y="208" font-size="26" font-weight="bold" fill="#2A2440">Поставьте CLI-агента</text>
    <text x="140" y="240" font-size="20" fill="#1D1B26">Расширение — только GUI поверх него.</text>
    <rect x="140" y="262" width="1076" height="48" fill="#F4F3FA" />
    <rect x="140" y="262" width="3" height="48" fill="#6F5CE8" />
    <text x="164" y="293" font-size="20" font-family="Consolas, Courier New, monospace" fill="#2A2440">bun install -g @oh-my-pi/pi-coding-agent</text>
    <text x="140" y="336" font-size="15" fill="#6B667E">Нет bun — curl -fsSL https://bun.sh/install | bash, затем перезапустите терминал.</text>
    <text x="140" y="358" font-size="15" fill="#6B667E">Расширение ищет omp в PATH; свой путь задаётся настройкой ompcode.ompPath.</text>
  </g>

  <g id="step-extension" data-pptx-bounds="64 382 1152 182">
    <line x1="64" y1="386" x2="1216" y2="386" stroke="#DDD8EE" stroke-width="1" />
    <text x="64" y="458" font-size="56" font-weight="bold" fill="#6F5CE8">2</text>
    <text x="140" y="426" font-size="26" font-weight="bold" fill="#2A2440">Поставьте расширение</text>
    <text x="140" y="458" font-size="20" fill="#1D1B26">Скачайте .vsix из Releases и перетащите в панель Extensions — или:</text>
    <rect x="140" y="480" width="1076" height="48" fill="#F4F3FA" />
    <rect x="140" y="480" width="3" height="48" fill="#6F5CE8" />
    <text x="164" y="511" font-size="20" font-family="Consolas, Courier New, monospace" fill="#2A2440">code --install-extension omp-code-&lt;версия&gt;.vsix</text>
    <text x="140" y="554" font-size="15" fill="#6B667E">После установки перезагрузите окно: Reload Window.</text>
  </g>

  <g id="upgrade-warning" data-pptx-bounds="64 574 1152 94">
    <rect x="64" y="578" width="1152" height="86" fill="#F4F3FA" />
    <rect x="64" y="578" width="3" height="86" fill="#6F5CE8" />
    
  <g transform="translate(92, 600)" fill="none" stroke="#6F5CE8" stroke-width="2">
    <path d="M12 9v4" />
    <path d="M10.363 3.591l-8.106 13.534a1.914 1.914 0 0 0 1.636 2.871h16.214a1.914 1.914 0 0 0 1.636 -2.87l-8.106 -13.536a1.914 1.914 0 0 0 -3.274 0" />
    <path d="M12 16h.01" />
  </g>
    <text fill="#1D1B26" font-size="15" x="132" y="606">Обновляетесь со сборки старше 0.5.0? Идентификатор расширения сменился, поэтому новая версия встанет рядом со старой:</text><text fill="#1D1B26" font-size="15" x="132" y="628">две одинаковые иконки в заголовке редактора и задвоенные команды в палитре.</text><text fill="#1D1B26" font-size="15" x="132" y="650">Уберите старую — code --uninstall-extension local.omp-code — и перезагрузите окно.</text></g>

  <g id="page-footer" data-pptx-bounds="64 668 1152 32">
    <text x="64" y="688" font-size="15" fill="#6B667E">Установка</text>
    <text x="1216" y="688" font-size="15" fill="#6B667E" text-anchor="end">03</text>
  </g>
</svg>